<?xml version="1.0" standalone="no"?>
<!DOCTYPE svg PUBLIC "-//W3C//DTD SVG 20010904//EN"
 "http://www.w3.org/TR/2001/REC-SVG-20010904/DTD/svg10.dtd">
<svg version="1.0" xmlns="http://www.w3.org/2000/svg"
 width="610.000000pt" height="488.000000pt" viewBox="0 0 610.000000 488.000000"
 preserveAspectRatio="xMidYMid meet">
<metadata>
Created by potrace 1.16, written by Peter Selinger 2001-2019
</metadata>
<g transform="translate(0.000000,488.000000) scale(0.100000,-0.100000)"
fill="#000000" stroke="none">
<path d="M3100 4787 c0 -2 232 -453 516 -1002 284 -550 543 -1053 575 -1117
l59 -118 0 -740 0 -740 265 0 265 0 0 748 0 747 574 1110 574 1110 -260 3
c-247 2 -262 1 -293 -18 -18 -11 -44 -35 -57 -53 -14 -17 -161 -342 -327 -722
-167 -379 -331 -746 -365 -815 -35 -69 -73 -151 -86 -183 l-23 -58 -32 73
c-17 40 -54 118 -82 173 -28 55 -189 413 -358 795 -169 382 -319 711 -334 730
-16 19 -43 45 -61 58 -32 21 -40 22 -291 22 -143 0 -259 -1 -259 -3z"/>
<path d="M300 2078 c1 -1885 -1 -1817 47 -1870 10 -11 36 -30 58 -41 35 -19
61 -22 209 -25 l169 -4 -7 498 c-3 275 -10 535 -15 579 -5 44 -8 81 -7 82 1 1
27 -20 59 -46 71 -59 164 -106 264 -133 62 -16 109 -21 223 -22 161 0 245 17
368 75 131 63 288 203 391 349 l48 69 18 -67 c65 -237 241 -411 465 -458 103
-22 274 -14 351 15 64 24 115 72 129 122 6 18 10 78 10 131 l0 98 -119 0
c-234 0 -345 68 -399 242 -14 47 -16 172 -19 1116 l-4 1062 -249 0 -250 0 0
-917 0 -918 -49 -82 c-171 -288 -378 -422 -651 -423 -261 0 -429 136 -506 410
-17 60 -19 130 -22 998 l-3 932 -254 0 -255 0 0 -1772z"/>
</g>
</svg>
